#N canvas 0 22 417 297 10;
#X floatatom 119 87 5 0 0 0 - - -, f 5;
#X floatatom 119 182 5 0 0 0 - - -, f 5;
#X text 160 181 <-- radians;
#X text 161 85 <-- degrees;
#X text 114 40 calculate degrees to radians;
#X obj 119 128 cal.deg2rad;
#X connect 0 0 5 0;
#X connect 5 0 1 0;
