#N canvas 903 131 346 301 10;
#X obj 145 14 inlet;
#X obj 24 17 inlet;
#X obj 24 240 outlet;
#X obj 24 177 expr $f1 / (($f3 * (4 * atan(1))) / $f2), f 41;
#X obj 145 52 route spr bore;
#X obj 156 124 f \$1;
#X obj 156 144 sel 0;
#X obj 156 103 loadbang;
#X obj 267 145 sel 0;
#X obj 267 104 loadbang;
#X obj 267 125 f \$2;
#X connect 0 0 4 0;
#X connect 1 0 3 0;
#X connect 3 0 2 0;
#X connect 4 0 3 1;
#X connect 4 1 3 2;
#X connect 5 0 6 0;
#X connect 6 1 3 1;
#X connect 7 0 5 0;
#X connect 8 1 3 2;
#X connect 9 0 10 0;
#X connect 10 0 8 0;
