#N canvas 0 22 377 345 10;
#X obj 45 23 inlet;
#X obj 45 207 outlet;
#X obj 45 175 expr $f1 * (($f3 * (4 * atan(1))) / $f2);
#X obj 163 20 inlet;
#X obj 163 46 route spr bore;
#X obj 179 125 f \$1;
#X obj 179 145 sel 0;
#X obj 179 104 loadbang;
#X obj 290 146 sel 0;
#X obj 290 105 loadbang;
#X obj 290 126 f \$2;
#X connect 0 0 2 0;
#X connect 2 0 1 0;
#X connect 3 0 4 0;
#X connect 4 0 2 1;
#X connect 4 1 2 2;
#X connect 5 0 6 0;
#X connect 6 1 2 1;
#X connect 7 0 5 0;
#X connect 8 1 2 2;
#X connect 9 0 10 0;
#X connect 10 0 8 0;
