#N canvas 1377 722 450 300 10;
#X obj 147 89 unpack f f;
#X obj 147 143 int;
#X obj 192 140 int;
#X obj 147 164 pack f f;
#X obj 147 120 +;
#X obj 192 117 +;
#X obj 147 21 inlet;
#X obj 147 229 outlet;
#X obj 284 59 f \$1;
#X obj 304 114 sel 0;
#X obj 281 38 loadbang;
#X obj 226 28 inlet;
#X connect 0 0 4 0;
#X connect 0 1 5 0;
#X connect 1 0 3 0;
#X connect 2 0 3 1;
#X connect 3 0 7 0;
#X connect 4 0 1 0;
#X connect 5 0 2 0;
#X connect 6 0 0 0;
#X connect 8 0 9 0;
#X connect 9 1 5 1;
#X connect 9 1 4 1;
#X connect 10 0 8 0;
#X connect 11 0 5 1;
#X connect 11 0 4 1;
