#N canvas 293 228 294 322 10;
#X obj 55 208 int;
#X obj 89 208 int;
#X obj 55 22 inlet;
#X obj 55 256 outlet;
#X obj 180 65 f \$1;
#X obj 180 85 sel 0;
#X obj 180 44 loadbang;
#X obj 55 186 *;
#X obj 89 185 *;
#X msg 112 76 bang;
#X obj 55 133 list;
#X obj 168 21 inlet;
#X obj 55 107 t b l;
#X obj 55 53 route list;
#X obj 168 129 s \$0-num;
#X obj 139 156 r \$0-num;
#X obj 55 232 pack f f f;
#X obj 55 156 unpack f f f;
#X obj 124 209 int;
#X obj 124 186 *;
#X connect 0 0 16 0;
#X connect 1 0 16 1;
#X connect 2 0 13 0;
#X connect 4 0 5 0;
#X connect 5 1 14 0;
#X connect 6 0 4 0;
#X connect 7 0 0 0;
#X connect 8 0 1 0;
#X connect 9 0 10 0;
#X connect 10 0 17 0;
#X connect 11 0 14 0;
#X connect 12 0 10 0;
#X connect 12 1 10 1;
#X connect 13 0 12 0;
#X connect 13 1 9 0;
#X connect 15 0 8 1;
#X connect 15 0 7 1;
#X connect 15 0 19 1;
#X connect 16 0 3 0;
#X connect 17 0 7 0;
#X connect 17 1 8 0;
#X connect 17 2 19 0;
#X connect 18 0 16 2;
#X connect 19 0 18 0;
