#N canvas 545 392 378 261 10;
#X floatatom 40 61 5 0 0 0 - - -, f 5;
#X text 107 201 <-- steps;
#X text 211 95 <-- steps per revolution;
#X text 220 119 <-- bore size;
#X text 36 24 calculate steps based on distance;
#X floatatom 40 203 10 0 0 0 - - -, f 10;
#X msg 174 119 bore 5;
#X text 80 59 <-- distance;
#X msg 157 96 spr 800;
#X obj 40 154 calc.dist2step 800 5;
#X connect 0 0 9 0;
#X connect 6 0 9 1;
#X connect 8 0 9 1;
#X connect 9 0 5 0;
