#N canvas 1915 725 447 520 10;
#X obj 147 299 unpack f f;
#X obj 147 373 int;
#X obj 192 370 int;
#X obj 147 394 pack f f;
#X obj 118 11 inlet;
#X obj 147 418 outlet;
#X obj 242 271 f \$1;
#X obj 242 296 sel 0;
#X obj 242 250 loadbang;
#X obj 147 351 *;
#X obj 192 347 *;
#X msg 177 95 bang;
#X obj 119 152 list;
#X obj 248 20 inlet;
#X obj 119 126 t b l;
#X obj 120 65 route list;
#X connect 0 0 9 0;
#X connect 0 1 10 0;
#X connect 1 0 3 0;
#X connect 2 0 3 1;
#X connect 3 0 5 0;
#X connect 4 0 15 0;
#X connect 6 0 7 0;
#X connect 7 1 9 1;
#X connect 7 1 10 1;
#X connect 8 0 6 0;
#X connect 9 0 1 0;
#X connect 10 0 2 0;
#X connect 11 0 12 0;
#X connect 12 0 0 0;
#X connect 13 0 9 1;
#X connect 13 0 10 1;
#X connect 14 0 12 0;
#X connect 14 1 12 1;
#X connect 15 0 14 0;
#X connect 15 1 11 0;
