#N struct template float x float y float w float h float q;
#N canvas 89 23 329 216 10;
#N canvas 902 23 450 300 data 1;
#X scalar template 195 123 4 34 195 \;;
#X restore 47 114 pd data;
#N canvas 184 23 469 430 template 1;
#X text 58 79 fill color | border color | line thinkness |;
#X obj 62 105 drawnumber q 0 -15 0;
#X obj 58 23 struct template float x float y float w float h float
q;
#X obj 249 310 pointer;
#X floatatom 63 138 5 0 0 0 - - -, f 5;
#X floatatom 95 317 5 0 0 0 - - -, f 5;
#X floatatom 124 333 5 0 0 0 - - -, f 5;
#X floatatom 154 352 5 0 0 0 - - -, f 5;
#X msg 276 255 \; pd-data clear;
#X msg 249 289 traverse pd-data \, bang;
#X obj 66 375 append template x y w h q;
#X obj 63 163 t f f b;
#X obj 249 233 t b b;
#X obj 102 184 s \$0-pbang;
#X obj 249 209 r \$0-pbang;
#X obj 249 331 s \$0-pointer;
#X obj 213 354 r \$0-pointer;
#X obj 202 185 s \$0-pbang;
#X obj 175 159 t l b;
#X obj 175 207 s \$0-build;
#X obj 66 296 r \$0-build;
#X obj 63 225 s \$0-build;
#X obj 82 204 s \$0-qnum;
#X obj 183 332 r \$0-qnum;
#X msg 173 140 120 30 20 100;
#X obj 59 58 filledpolygon 900 0 1 0 0 w 0 w h 0 h;
#X connect 3 0 15 0;
#X connect 4 0 11 0;
#X connect 5 0 10 1;
#X connect 6 0 10 2;
#X connect 7 0 10 3;
#X connect 9 0 3 0;
#X connect 11 0 21 0;
#X connect 11 1 22 0;
#X connect 11 2 13 0;
#X connect 12 0 9 0;
#X connect 12 1 8 0;
#X connect 14 0 12 0;
#X connect 16 0 10 5;
#X connect 18 0 19 0;
#X connect 18 1 17 0;
#X connect 20 0 10 0;
#X connect 23 0 10 4;
#X connect 24 0 18 0;
#X restore 47 85 pd template;
#X text 42 49 trying to figure out how to rotate a plygon;
