#N struct template float x1 float y1 float x2 float y2 float x3 float
y3 float x4 float y4 float q;
#N canvas 76 59 582 432 10;
#X floatatom 52 45 5 0 0 0 - - -, f 5;
#X obj 52 69 ds.rotpoly;
#X text 91 43 <-- radians;
#X msg 345 44 0 200 300 30 200 0 -200;
#X text 365 71 1) angle 2) x 3) y 4) width 5) height 6) width offset
7) height offset, f 24;
#X obj 345 22 loadbang;
#X connect 0 0 1 0;
#X connect 3 0 1 1;
#X connect 5 0 3 0;
