#N struct kaos float x float y float a float b;
#N canvas 666 67 612 430 10;
#N canvas 524 31 450 299 graph 0;
#X scalar kaos 0 0 50.05 59.8002 \;;
#X coords 0 0 1.1 1.1 2 2 1;
#X restore 110 110 pd graph;
#N canvas 607 295 685 427 struct 0;
#X obj 194 123 bng 15 250 50 0 empty empty empty 17 7 0 10 -262144
-1 -1;
#X obj 322 288 pointer;
#X msg 324 227 \; pd-graph clear;
#X msg 322 267 traverse pd-graph \, bang;
#X obj 18 203 pointer;
#X floatatom 77 310 5 0 0 0 - - -, f 5;
#X floatatom 127 310 5 0 0 0 - - -, f 5;
#X obj 194 142 t b b b b;
#X msg 18 181 traverse pd-graph \, next;
#X obj 211 308 append kaos x y a b;
#X obj 18 223 get kaos x y a b;
#X obj 18 39 struct kaos float x float y float a float b;
#X obj 80 352 outlet x;
#X obj 136 352 outlet x;
#X obj 204 80 loadbang;
#X obj 296 118 filledpolygon 0 900 0 -1 -1 101 -1 101 101 -1 101;
#X obj 296 82 filledpolygon 0 900 0 a -1 101 -1 101 b a b -1 b -1 101
a 101;
#X msg 211 287 0 0 50 50;
#X obj 77 266 min 100;
#X obj 77 286 max 0;
#X obj 127 266 min 100;
#X obj 127 286 max 0;
#X obj 193 11 inlet;
#X connect 0 0 7 0;
#X connect 1 0 9 4;
#X connect 3 0 1 0;
#X connect 4 0 10 0;
#X connect 5 0 12 0;
#X connect 6 0 13 0;
#X connect 7 0 8 0;
#X connect 7 1 17 0;
#X connect 7 2 3 0;
#X connect 7 3 2 0;
#X connect 8 0 4 0;
#X connect 10 2 18 0;
#X connect 10 3 20 0;
#X connect 11 0 8 0;
#X connect 14 0 0 0;
#X connect 17 0 9 0;
#X connect 18 0 19 0;
#X connect 19 0 5 0;
#X connect 20 0 21 0;
#X connect 21 0 6 0;
#X connect 22 0 0 0;
#X restore 435 167 pd struct;
#N canvas 407 211 528 321 set 1;
#X obj 317 194 pointer;
#X msg 317 172 traverse pd-graph \, next;
#X obj 248 216 set kaos a b;
#X obj 254 30 inlet x;
#X obj 317 30 inlet y;
#X obj 203 114 t b f;
#X obj 117 29 inlet midi_y;
#X obj 23 33 inlet midi_x;
#X obj 370 130 t b;
#X obj 329 52 s \$0-trav;
#X obj 390 98 r \$0-trav;
#X obj 263 50 s \$0-trav;
#X obj 173 55 s \$0-trav;
#X obj 75 61 s \$0-trav;
#X connect 0 0 2 2;
#X connect 1 0 0 0;
#X connect 3 0 2 0;
#X connect 3 0 11 0;
#X connect 4 0 2 1;
#X connect 4 0 9 0;
#X connect 5 0 2 0;
#X connect 5 1 2 1;
#X connect 6 0 5 0;
#X connect 6 0 12 0;
#X connect 7 0 2 0;
#X connect 7 0 13 0;
#X connect 8 0 1 0;
#X connect 10 0 8 0;
#X restore 325 206 pd set graph;
#X obj 435 311 outlet x;
#X obj 486 289 outlet y;
#X obj 100 100 cnv 15 200 200 empty empty empty 20 12 0 14 -1 -66577
0;
#X obj 325 101 inlet x;
#X obj 380 101 inlet y;
#X obj 471 91 inlet;
#X connect 1 0 3 0;
#X connect 1 0 2 2;
#X connect 1 1 4 0;
#X connect 1 1 2 3;
#X connect 6 0 2 0;
#X connect 7 0 2 1;
#X connect 8 0 1 0;
#X coords 0 -1 1 1 200 200 1 100 100;
