#N struct kaos float x float y float a float b;
#N canvas 88 23 536 430 10;
#X obj 171 121 ds.xy;
#X floatatom 180 351 5 0 0 0 - - -, f 5;
#X floatatom 368 349 5 0 0 0 - - -, f 5;
#X obj 365 64 bng 15 250 50 0 empty empty empty 17 7 0 10 -262144 -1
-1;
#X obj 365 34 loadbang;
#X connect 0 0 1 0;
#X connect 0 1 2 0;
#X connect 3 0 0 2;
#X connect 4 0 3 0;
