#N canvas 534 23 551 516 10;
#X obj 81 93 t b f;
#X obj 32 125 f;
#X text 29 21 Inverse Kinematics for 2 Joint Arm in 2D space;
#X obj 430 281 v s2;
#X obj 497 280 v c2;
#X obj 32 68 inlet;
#X obj 81 68 inlet;
#X obj 153 67 inlet;
#X obj 197 68 inlet;
#X obj 39 424 outlet;
#X obj 111 423 outlet;
#X text 40 466 megrimm 2017;
#X obj 197 90 v l2;
#X obj 153 89 v l1;
#X obj 364 281 v j1;
#X obj 297 282 v j2;
#X obj 164 281 v j1x;
#X obj 231 282 v j1y;
#X obj 32 282 v j2x;
#X obj 98 282 v j2y;
#X obj 371 261 s \$0-j1;
#X obj 303 261 s \$0-j2;
#X obj 171 260 s \$0-j1x;
#X obj 238 262 s \$0-j1y;
#X obj 40 261 s \$0-j2x;
#X obj 105 261 s \$0-j2y;
#X obj 193 316 r \$0-j2x;
#X obj 216 336 r \$0-j2y;
#X obj 239 356 r \$0-j1x;
#X obj 262 376 r \$0-j1y;
#X obj 193 399 pack f f f f;
#X obj 193 422 outlet;
#X obj 328 360 expr l1 + l2 * c2 \; l2 * s2 \;;
#X obj 39 402 r \$0-j1;
#X obj 111 401 r \$0-j2;
#X obj 328 318 r \$0-j1;
#X obj 328 339 t b;
#X obj 328 400 pack f f;
#X obj 328 423 outlet;
#X obj 32 149 expr cos(j1 + j2) * l2 + j1x \; sin(j1 + j2) * l2 + j1y
\; cos(j1) * l1 \; sin(j1) * l1 \; acos ((pow($f1 \, 2) + pow($f2 \,
2) - pow(l1 \, 2) - pow(l2 \, 2)) / (2 * l1 * l2)) \; asin (($f2 *
(l1 + l2 * c2) - $f1 * l2 * s2) / (pow($f1 \, 2) + pow($f2 \, 2)))
\; sqrt (1 - pow(c2 \, 2)) \; (pow($f1 \, 2) + pow($f2 \, 2) - pow(l1
\, 2) - pow(l2 \, 2)) / (2 * l1 * l2), f 78;
#X connect 0 0 1 0;
#X connect 0 1 39 1;
#X connect 1 0 39 0;
#X connect 5 0 1 0;
#X connect 6 0 0 0;
#X connect 7 0 13 0;
#X connect 8 0 12 0;
#X connect 26 0 30 0;
#X connect 27 0 30 1;
#X connect 28 0 30 2;
#X connect 29 0 30 3;
#X connect 30 0 31 0;
#X connect 32 0 37 0;
#X connect 32 1 37 1;
#X connect 33 0 9 0;
#X connect 34 0 10 0;
#X connect 35 0 36 0;
#X connect 36 0 32 0;
#X connect 37 0 38 0;
#X connect 39 0 18 0;
#X connect 39 0 24 0;
#X connect 39 1 19 0;
#X connect 39 1 25 0;
#X connect 39 2 16 0;
#X connect 39 2 22 0;
#X connect 39 3 17 0;
#X connect 39 3 23 0;
#X connect 39 4 15 0;
#X connect 39 4 21 0;
#X connect 39 5 14 0;
#X connect 39 5 20 0;
#X connect 39 6 3 0;
#X connect 39 7 4 0;
