#N canvas 550 344 463 348 10;
#X msg 229 170 1500;
#X text 269 168 <-- distance between points;
#X floatatom 76 274 8 0 0 0 - - -, f 8;
#X floatatom 229 231 8 0 0 0 - - -, f 8;
#X text 130 274 <-- line distance 1;
#X text 284 230 <-- line distance 2;
#X floatatom 76 69 5 0 0 0 - - -, f 5;
#X floatatom 94 94 5 0 0 0 - - -, f 5;
#X text 116 70 <-- X;
#X text 130 91 <-- Y;
#X obj 76 145 pack f f;
#X msg 76 170 \$1 \$2;
#X obj 94 120 t b f;
#X obj 76 198 kin.inv.2d.polargraph 1000;
#X text 73 24 calculates triangle side distance given X Y coordinates
useful in creating a polargraph type machine;
#X connect 0 0 13 1;
#X connect 6 0 10 0;
#X connect 7 0 12 0;
#X connect 10 0 11 0;
#X connect 11 0 13 0;
#X connect 12 0 10 0;
#X connect 12 1 10 1;
#X connect 13 0 2 0;
#X connect 13 1 3 0;
