#N canvas 436 23 436 249 10;
#X obj 180 57 v dist;
#X text 229 60 <-- distance between points;
#X obj 180 32 inlet;
#X obj 43 32 inlet;
#X obj 97 31 inlet;
#X obj 44 167 outlet;
#X obj 305 165 outlet;
#X obj 44 125 expr sqrt((pow($f1 \, 2)) + (pow($f2 \, 2))) \; sqrt((pow($f1
\, 2)) + (pow((dist - $f2) \, 2)));
#X obj 97 61 t b f;
#X obj 43 103 f;
#X connect 2 0 0 0;
#X connect 3 0 9 0;
#X connect 4 0 8 0;
#X connect 7 0 5 0;
#X connect 7 1 6 0;
#X connect 8 1 7 1;
#X connect 9 0 7 0;
