#N canvas 144 23 391 592 10;
#X text 87 42 Desired X (DX);
#X floatatom 53 62 5 0 0 0 - - -, f 5;
#X msg 53 41 3.56;
#X text 117 87 Desired Y (DY);
#X floatatom 82 106 5 0 0 0 - - -, f 5;
#X msg 82 85 6.43;
#X text 140 148 Length of Linkage 1 (LL1);
#X obj 111 126 loadbang;
#X msg 111 148 5;
#X text 167 195 Length of Linkage 2 (LL2);
#X msg 140 195 4;
#X obj 140 173 loadbang;
#X floatatom 82 411 10 0 0 0 - - -, f 10;
#X floatatom 53 479 10 0 0 0 - - -, f 10;
#X text 50 9 Inverse Kinematics for 2 Joint Arm in 2D space;
#X obj 53 224 kin.inv.2d.2dof;
#X text 51 544 megrimm 2017;
#X text 150 411 Joint 2 (J1) Angle (Radians);
#X text 124 481 Joint 1 (J1) Angle (Radians);
#X obj 53 499 kin.cal.rad2deg;
#X floatatom 53 522 10 0 0 0 - - -, f 10;
#X obj 82 431 kin.cal.rad2deg;
#X floatatom 82 454 10 0 0 0 - - -, f 10;
#X obj 111 313 unpack f f f f;
#X floatatom 111 388 5 0 0 0 - - -, f 5;
#X floatatom 138 370 5 0 0 0 - - -, f 5;
#X floatatom 165 353 5 0 0 0 - - -, f 5;
#X floatatom 192 335 5 0 0 0 - - -, f 5;
#X text 201 351 <-- Joint 1 X (j1x);
#X text 148 387 <-- Joint 2 X (j1x);
#X text 175 369 <-- Joint 2 Y (j2y);
#X text 228 334 <-- Joint 1 Y (j1y);
#X floatatom 140 291 5 0 0 0 - - -, f 5;
#X floatatom 197 272 5 0 0 0 - - -, f 5;
#X text 177 290 <-- k1;
#X text 234 271 <-- k2;
#X obj 140 250 unpack f f;
#X connect 1 0 15 0;
#X connect 2 0 1 0;
#X connect 4 0 15 1;
#X connect 5 0 4 0;
#X connect 7 0 8 0;
#X connect 8 0 15 2;
#X connect 10 0 15 3;
#X connect 11 0 10 0;
#X connect 12 0 21 0;
#X connect 13 0 19 0;
#X connect 15 0 13 0;
#X connect 15 1 12 0;
#X connect 15 2 23 0;
#X connect 15 3 36 0;
#X connect 19 0 20 0;
#X connect 21 0 22 0;
#X connect 23 0 24 0;
#X connect 23 1 25 0;
#X connect 23 2 26 0;
#X connect 23 3 27 0;
#X connect 36 0 32 0;
#X connect 36 1 33 0;
