#N canvas 436 23 403 224 10;
#X obj 290 13 inlet;
#X obj 35 18 inlet;
#X obj 35 158 outlet;
#X obj 290 156 outlet;
#X obj 300 58 f \$1;
#X obj 300 78 sel 0;
#X obj 300 37 loadbang;
#X obj 35 78 unpack f f;
#X obj 35 116 expr sqrt((pow($f2 \, 2)) + (pow($f1 \, 2))) \; sqrt((pow($f2
\, 2)) + (pow(($f3 - $f1) \, 2)));
#X connect 0 0 8 2;
#X connect 1 0 7 0;
#X connect 4 0 5 0;
#X connect 5 1 8 2;
#X connect 6 0 4 0;
#X connect 7 0 8 0;
#X connect 7 1 8 1;
#X connect 8 0 2 0;
#X connect 8 1 3 0;
