#N canvas 540 25 394 246 10;
#X obj 268 21 inlet;
#X obj 146 20 inlet;
#X obj 25 21 inlet;
#X obj 25 182 outlet;
#X obj 241 185 outlet;
#X obj 25 75 expr $f1 / (($f3 * (4 * atan(1))) / $f2), f 41;
#X obj 25 161 -;
#X obj 25 97 t f f;
#X obj 268 47 route bore home;
#X obj 311 75 s \$0-home;
#X obj 40 138 r \$0-home;
#X connect 0 0 8 0;
#X connect 1 0 5 1;
#X connect 2 0 5 0;
#X connect 5 0 7 0;
#X connect 6 0 3 0;
#X connect 7 0 6 0;
#X connect 7 1 4 0;
#X connect 8 0 5 2;
#X connect 8 1 9 0;
#X connect 10 0 6 1;
