#N canvas 0 22 415 160 10;
#X obj 45 76 expr $f1 * ((motBore * (4 * atan(1))) / motSteps);
#X obj 45 44 inlet;
#X obj 45 103 outlet;
#X obj 212 44 v motSteps;
#X obj 296 46 v motBore;
#X obj 296 21 inlet;
#X obj 212 19 inlet;
#X connect 0 0 2 0;
#X connect 1 0 0 0;
#X connect 5 0 4 0;
#X connect 6 0 3 0;
