#N canvas 645 440 450 300 10;
#X floatatom 97 243 10 0 0 0 - - -, f 10;
#X text 170 244 <-- distance;
#X floatatom 97 61 5 0 0 0 - - -, f 5;
#X text 141 61 <-- steps;
#X msg 146 123 800;
#X msg 196 162 5;
#X text 173 121 <-- steps per revolution;
#X text 225 162 <-- bore size;
#X text 90 19 calculatete distance based on motor steps;
#X obj 97 195 mot.step.fwd.calc;
#X connect 2 0 9 0;
#X connect 4 0 9 1;
#X connect 5 0 9 2;
#X connect 9 0 0 0;
