#N canvas 522 129 375 273 10;
#X obj 52 178 mot.step.inv.calc;
#X floatatom 52 49 5 0 0 0 - - -, f 5;
#X text 119 225 <-- steps;
#X msg 101 81 800;
#X text 128 79 <-- steps per revolution;
#X text 197 108 <-- bore size;
#X text 48 12 calculate steps based on distance;
#X floatatom 151 203 10 0 0 0 - - -, f 10;
#X text 218 202 <-- distance;
#X floatatom 52 227 10 0 0 0 - - -, f 10;
#X msg 151 108 bore 5;
#X msg 164 136 home 5;
#X text 210 136 <-- home set;
#X text 92 47 <-- distance;
#X connect 0 0 9 0;
#X connect 0 1 7 0;
#X connect 1 0 0 0;
#X connect 3 0 0 1;
#X connect 10 0 0 2;
#X connect 11 0 0 2;
