#N canvas 544 263 465 256 10;
#X obj 334 86 key;
#X floatatom 341 107 5 0 0 0 - - -;
#X msg 165 121 -1;
#X obj 367 143 spigot 0;
#X obj 412 123 tgl 15 0 empty empty empty 17 7 0 10 -262144 -1 -1 0
1;
#X msg 215 157 devices;
#X msg 221 178 info;
#X msg 202 115 open \$1;
#X msg 209 136 close;
#X obj 334 170 s \$0-tocom;
#X obj 202 201 s \$0-tocom;
#X obj 24 141 lst.collection;
#X obj 24 160 list trim;
#X obj 334 123 sel 10;
#X msg 334 143 10;
#X obj 105 86 print com-R;
#X obj 24 179 print com-L;
#X obj 24 18 inlet;
#X obj 202 27 inlet;
#X obj 202 61 route open close devices info key;
#X obj 39 39 r \$0-tocom;
#X obj 403 188 f;
#X obj 431 189 + 1;
#X obj 403 169 t b;
#X msg 429 168 0;
#X floatatom 403 208 5 0 0 0 - - -;
#X obj 24 66 comport 1 9600;
#X obj 24 121 moocow/bytes2any 128 0;
#X text 264 26 key 10 = "return";
#X connect 0 0 1 0;
#X connect 0 0 13 0;
#X connect 2 0 27 1;
#X connect 3 0 9 0;
#X connect 3 0 23 0;
#X connect 4 0 3 1;
#X connect 5 0 10 0;
#X connect 6 0 10 0;
#X connect 7 0 10 0;
#X connect 8 0 10 0;
#X connect 11 0 12 0;
#X connect 12 0 16 0;
#X connect 13 0 14 0;
#X connect 13 1 3 0;
#X connect 14 0 9 0;
#X connect 17 0 26 0;
#X connect 18 0 19 0;
#X connect 19 0 7 0;
#X connect 19 1 8 0;
#X connect 19 2 5 0;
#X connect 19 3 6 0;
#X connect 19 4 3 1;
#X connect 20 0 26 0;
#X connect 21 0 22 0;
#X connect 21 0 25 0;
#X connect 22 0 21 1;
#X connect 23 0 21 0;
#X connect 24 0 21 1;
#X connect 26 0 27 0;
#X connect 26 1 15 0;
#X connect 27 0 11 0;
