#N canvas 344 23 346 560 10;
#X msg 116 148 rewind;
#X obj 79 299 print done;
#X obj 34 278 textfile;
#X msg 92 64 bang;
#X obj 34 320 list split 1;
#X obj 68 342 list split 1, f 37;
#X obj 179 367 list split 1;
#X obj 68 390 list fromsymbol;
#X obj 68 413 list split 1;
#X obj 102 436 list tosymbol;
#X obj 179 389 list fromsymbol;
#X obj 179 411 list split 1;
#X obj 213 434 list tosymbol;
#X obj 102 460 zexy/symbol2list;
#X obj 213 455 zexy/symbol2list;
#X obj 102 482 pack f f, f 19;
#X obj 102 511 outlet;
#X obj 35 18 inlet;
#X obj 35 42 route open;
#X msg 197 169 read \$1 cr;
#X obj 116 125 t b a, f 14;
#X obj 35 105 route bang, f 14;
#X obj 197 146 symbol;
#X obj 35 126 openpanel;
#X msg 35 148 read \$1 cr;
#X obj 35 170 t b a;
#X msg 35 211 rewind;
#X obj 92 85 s \$0-totxtf;
#X obj 197 192 s \$0-totxtf;
#X obj 116 170 s \$0-totxtf;
#X obj 34 256 r \$0-totxtf;
#X obj 35 234 s \$0-totxtf;
#X obj 61 190 s \$0-totxtf;
#X connect 0 0 29 0;
#X connect 2 0 4 0;
#X connect 2 1 1 0;
#X connect 3 0 27 0;
#X connect 4 1 5 0;
#X connect 5 0 7 0;
#X connect 5 1 6 0;
#X connect 6 0 10 0;
#X connect 7 0 8 0;
#X connect 8 1 9 0;
#X connect 9 0 13 0;
#X connect 10 0 11 0;
#X connect 11 1 12 0;
#X connect 12 0 14 0;
#X connect 13 0 15 0;
#X connect 14 0 15 1;
#X connect 15 0 16 0;
#X connect 17 0 18 0;
#X connect 18 0 21 0;
#X connect 18 1 3 0;
#X connect 19 0 28 0;
#X connect 20 0 0 0;
#X connect 20 1 22 0;
#X connect 21 0 23 0;
#X connect 21 1 20 0;
#X connect 22 0 19 0;
#X connect 23 0 24 0;
#X connect 24 0 25 0;
#X connect 25 0 26 0;
#X connect 25 1 32 0;
#X connect 26 0 31 0;
#X connect 30 0 2 0;
