#N struct template float x1 float y1 float x2 float y2 float x3 float
y3 float x4 float y4 float q;
#N canvas 0 22 553 634 10;
#X obj 36 187 kinematic/kin.inv.2d.2dof;
#X text 70 37 Desired X (DX);
#X floatatom 36 57 5 0 0 0 - - -, f 5;
#X msg 36 36 3.56;
#X text 120 66 Desired Y (DY);
#X floatatom 85 85 5 0 0 0 - - -, f 5;
#X msg 85 64 6.43;
#X text 163 118 Length of Linkage 1 (LL1);
#X obj 134 96 loadbang;
#X msg 134 118 5;
#X text 210 161 Length of Linkage 2 (LL2);
#X msg 183 161 4;
#X obj 183 139 loadbang;
#X obj 85 266 kinematic/ds.rotpoly;
#X obj 378 218 loadbang;
#X msg 378 240 0 50 450 20 200 0 -200;
#X connect 0 1 13 0;
#X connect 2 0 0 0;
#X connect 3 0 2 0;
#X connect 5 0 0 1;
#X connect 6 0 5 0;
#X connect 8 0 9 0;
#X connect 9 0 0 2;
#X connect 11 0 0 3;
#X connect 12 0 11 0;
#X connect 14 0 15 0;
#X connect 15 0 13 1;
