#N canvas 177 23 718 577 10;
#X text 42 21 calculate stepper motor steps to reach desired X \, Y
position;
#X obj 46 178 kinematic/kin.inv.2d.polargraph;
#X msg 495 44 1500;
#X floatatom 46 156 5 0 0 0 - - -, f 5;
#X floatatom 137 156 5 0 0 0 - - -, f 5;
#X text 532 43 <-- distance between points;
#X text 80 154 <-- X;
#X text 171 156 <-- Y;
#X floatatom 58 357 8 0 0 0 - - -, f 8;
#X floatatom 239 216 8 0 0 0 - - -, f 8;
#X text 112 355 <-- line distance 1;
#X text 294 215 <-- line distance 2;
#X obj 495 23 loadbang;
#X msg 495 111 800;
#X msg 495 180 5;
#X text 522 109 <-- steps per revolution;
#X text 524 180 <-- bore size;
#X obj 495 201 s \$0-bore;
#X obj 495 67 s \$0-motdis;
#X obj 495 156 loadbang;
#X obj 495 89 loadbang;
#X obj 188 385 r \$0-bore;
#X obj 495 133 s \$0-revstp;
#X obj 112 385 r \$0-revstp;
#X obj 229 157 r \$0-motdis;
#X floatatom 55 449 8 0 0 0 - - -, f 8;
#X floatatom 238 302 8 0 0 0 - - -, f 8;
#X obj 46 114 random 215;
#X obj 137 114 random 280;
#X obj 46 135 + 650;
#X obj 137 135 + 650;
#X obj 46 62 bng 15 250 50 0 empty empty empty 17 7 0 10 -262144 -1
-1;
#X obj 46 82 t b b;
#X obj 47 466 s \$0-motstps1;
#X obj 229 319 s \$0-motstps2;
#X obj 47 428 kinematic/calc.dist2step;
#X obj 229 281 kinematic/calc.dist2step;
#X msg 188 404 bore \$1;
#X msg 112 405 spr \$1;
#X obj 370 236 r \$0-bore;
#X obj 295 237 r \$0-revstp;
#X msg 370 255 bore \$1;
#X msg 295 256 spr \$1;
#X connect 1 0 8 0;
#X connect 1 0 35 0;
#X connect 1 1 9 0;
#X connect 1 1 36 0;
#X connect 2 0 18 0;
#X connect 3 0 1 0;
#X connect 4 0 1 1;
#X connect 12 0 2 0;
#X connect 13 0 22 0;
#X connect 14 0 17 0;
#X connect 19 0 14 0;
#X connect 20 0 13 0;
#X connect 21 0 37 0;
#X connect 23 0 38 0;
#X connect 27 0 29 0;
#X connect 28 0 30 0;
#X connect 29 0 3 0;
#X connect 30 0 4 0;
#X connect 31 0 32 0;
#X connect 32 0 27 0;
#X connect 32 1 28 0;
#X connect 35 0 25 0;
#X connect 35 0 33 0;
#X connect 36 0 26 0;
#X connect 36 0 34 0;
#X connect 37 0 35 1;
#X connect 38 0 35 1;
#X connect 39 0 41 0;
#X connect 40 0 42 0;
#X connect 41 0 36 1;
#X connect 42 0 36 1;
