#N canvas 364 41 695 573 10;
#X text 41 20 for use with a drawing robot like an eleksdraw or axidraw
this will parse the apropriate gcode to the robot;
#X msg 100 126 open;
#X msg 89 104 bang;
#X obj 100 215 unpack f f;
#X floatatom 100 236 5 0 0 0 - - -, f 5;
#X floatatom 157 235 5 0 0 0 - - -, f 5;
#X obj 89 265 print XY;
#X obj 89 191 kinematic/prs.gcode;
#X msg 109 150 open 03_drawing.gcode;
#X obj 373 305 print;
#X obj 460 301 print;
#X msg 298 110 print G1 X93.829 Y96.071;
#X obj 367 260 comport 3 115200;
#X obj 343 445 list trim;
#X obj 355 490 print com-L;
#X obj 343 424 fresh/lst.collection;
#X obj 460 404 bng 15 250 50 0 empty empty empty 17 7 0 10 -262144
-1 -1;
#X obj 342 364 fresh/lst.drip;
#X obj 342 385 sel 62 60;
#X msg 369 339 60 97 32 98 32 99 62;
#X obj 343 466 moocow/bytes2any 128 0;
#X msg 325 135 print ?;
#X obj 595 126 s \$0-comp;
#X msg 593 53 open 3;
#X msg 581 32 devices;
#X msg 601 74 help;
#X obj 429 232 r \$0-comp;
#X msg 79 336 rnrn;
#X text 36 447 wakeup grbl "rnrn";
#X msg 493 136 10;
#X msg 344 158 print $;
#X msg 466 66 print X10;
#X msg 475 90 print X20;
#X obj 466 115 t a b;
#X msg 608 94 close;
#X connect 1 0 7 0;
#X connect 2 0 7 0;
#X connect 3 0 4 0;
#X connect 3 1 5 0;
#X connect 7 0 3 0;
#X connect 7 0 6 0;
#X connect 8 0 7 0;
#X connect 11 0 12 0;
#X connect 12 0 17 0;
#X connect 12 1 10 0;
#X connect 13 0 20 0;
#X connect 15 0 13 0;
#X connect 16 0 15 1;
#X connect 17 0 18 0;
#X connect 18 0 15 1;
#X connect 18 2 15 0;
#X connect 19 0 17 0;
#X connect 20 0 14 0;
#X connect 21 0 12 0;
#X connect 23 0 22 0;
#X connect 24 0 22 0;
#X connect 25 0 22 0;
#X connect 26 0 12 0;
#X connect 29 0 12 0;
#X connect 30 0 12 0;
#X connect 31 0 33 0;
#X connect 32 0 33 0;
#X connect 33 0 12 0;
#X connect 33 1 29 0;
#X connect 34 0 22 0;
